<?xml version="1.0" standalone="no"?>
<!DOCTYPE svg PUBLIC "-//W3C//DTD SVG 20010904//EN"
 "http://www.w3.org/TR/2001/REC-SVG-20010904/DTD/svg10.dtd">
<svg version="1.0" xmlns="http://www.w3.org/2000/svg"
 width="107.000000pt" height="115.000000pt" viewBox="0 0 107.000000 115.000000"
 preserveAspectRatio="xMidYMid meet">

<g transform="translate(0.000000,115.000000) scale(0.100000,-0.100000)"
fill="#000000" stroke="none">
<path d="M430 1067 c-122 -35 -211 -110 -267 -225 -35 -71 -38 -83 -41 -183
-4 -96 -6 -109 -23 -114 -21 -7 -49 -54 -49 -82 0 -10 10 -58 22 -108 24 -100
56 -145 102 -145 14 0 35 -9 46 -20 28 -28 75 -26 105 5 14 13 25 32 25 42 0
10 -20 95 -45 188 -37 145 -48 173 -71 192 -25 20 -27 25 -22 80 11 112 81
213 183 264 42 20 65 24 140 24 75 0 98 -4 139 -24 100 -50 175 -159 184 -270
4 -48 2 -55 -22 -75 -22 -18 -33 -48 -71 -193 -25 -95 -45 -179 -45 -188 0 -9
11 -27 25 -40 30 -31 77 -33 105 -5 11 11 32 20 46 20 45 0 78 46 102 142 12
48 22 100 22 116 0 29 -39 82 -60 82 -6 0 -10 33 -10 88 0 145 -41 244 -136
332 -71 65 -159 102 -257 106 -49 2 -100 -1 -127 -9z m270 -51 c71 -36 151
-114 184 -181 24 -50 54 -200 42 -212 -3 -3 -11 -3 -19 0 -9 3 -16 29 -21 68
-23 223 -235 374 -440 315 -75 -22 -121 -52 -178 -115 -50 -56 -74 -113 -86
-206 -4 -35 -12 -60 -21 -63 -11 -4 -13 10 -9 74 5 94 36 165 101 233 90 93
163 122 297 118 80 -2 104 -7 150 -31z m-466 -438 c7 -13 31 -94 52 -181 43
-176 42 -192 -17 -192 -34 0 -34 1 -54 72 -14 47 -25 69 -32 65 -8 -5 -8 -20
0 -55 5 -26 8 -49 5 -52 -11 -12 -57 19 -67 44 -16 43 -41 151 -41 180 0 32
23 67 38 57 6 -3 18 -40 28 -81 11 -46 23 -75 31 -75 17 0 16 0 -7 90 -23 87
-25 121 -8 138 19 19 56 14 72 -10z m675 13 c20 -13 17 -41 -23 -201 -48 -190
-49 -192 -88 -188 -56 6 -57 21 -10 205 24 92 48 173 54 180 12 15 46 17 67 4z
m70 -85 c7 -8 13 -27 13 -43 0 -29 -25 -138 -43 -184 -10 -26 -56 -56 -67 -44
-6 5 42 216 59 263 10 25 22 28 38 8z"/>
<path d="M329 691 c-31 -32 -38 -75 -17 -114 18 -34 40 -46 83 -47 48 0 78 18
95 59 40 98 -85 177 -161 102z m38 -98 c-2 -16 -4 -5 -4 22 0 28 2 40 4 28 2
-13 2 -35 0 -50z m60 25 c-3 -8 -6 -5 -6 6 -1 11 2 17 5 13 3 -3 4 -12 1 -19z"/>
<path d="M542 708 c-13 -13 -16 -60 -5 -72 4 -3 6 -29 4 -56 l-2 -50 90 0 91
0 0 44 0 43 -82 -2 c-46 -1 -74 1 -63 3 11 2 28 11 37 19 15 14 19 14 33 -1
19 -19 38 -20 66 -6 22 12 26 59 7 78 -18 18 -65 15 -78 -5 -10 -17 -10 -17
-20 0 -13 20 -60 23 -78 5z m56 -35 c-5 -26 -38 -29 -38 -4 0 15 6 21 21 21
14 0 19 -5 17 -17z m102 -4 c0 -25 -33 -22 -38 4 -2 12 3 17 17 17 15 0 21 -6
21 -21z"/>
<path d="M748 619 c-24 -13 -24 -74 -2 -83 23 -9 26 -4 22 47 -3 40 -5 45 -20
36z"/>
</g>
</svg>
