<?xml version="1.0" standalone="no"?>
<!DOCTYPE svg PUBLIC "-//W3C//DTD SVG 20010904//EN"
 "http://www.w3.org/TR/2001/REC-SVG-20010904/DTD/svg10.dtd">
<svg version="1.0" xmlns="http://www.w3.org/2000/svg"
 width="170.000000pt" height="106.000000pt" viewBox="0 0 170.000000 106.000000"
 preserveAspectRatio="xMidYMid meet">

<g transform="translate(0.000000,106.000000) scale(0.100000,-0.100000)"
fill="#6F65A9" stroke="none">
<path d="M40 570 l0 -490 810 0 810 0 0 490 0 490 -810 0 -810 0 0 -490z m408
333 l-3 -148 -65 -3 c-113 -4 -157 -43 -166 -144 -8 -85 5 -114 56 -129 54
-17 143 3 176 38 37 40 44 85 44 296 0 108 2 197 5 197 3 0 18 -11 33 -25 28
-26 62 -33 62 -14 0 7 -16 27 -36 45 l-35 34 465 0 466 0 0 -129 0 -128 -76
-6 c-74 -5 -78 -7 -115 -47 -38 -40 -39 -44 -39 -113 1 -86 13 -107 69 -114
67 -9 124 5 162 39 l34 31 3 226 c2 124 7 230 11 234 4 4 23 -6 42 -23 19 -16
37 -30 42 -30 12 0 8 48 -5 53 -7 3 6 6 30 6 l42 1 0 -86 c0 -50 -4 -83 -9
-79 -13 7 -70 -54 -77 -83 -11 -40 7 -38 47 6 l39 44 0 -121 c0 -67 -4 -120
-8 -118 -4 1 -43 -34 -87 -78 -57 -57 -100 -90 -150 -115 -67 -32 -75 -34
-180 -35 -81 0 -127 5 -175 20 -36 10 -67 22 -70 26 -3 3 -17 8 -32 11 -23 4
-28 2 -28 -14 0 -20 52 -48 90 -48 11 0 20 -4 20 -9 0 -5 45 -14 99 -21 103
-14 227 -3 275 23 101 55 182 122 229 189 15 22 16 16 16 -99 1 -117 0 -123
-19 -123 -11 0 -20 -6 -20 -13 0 -7 -25 -38 -56 -67 -78 -77 -81 -80 -93 -80
-6 0 -11 -4 -11 -8 0 -9 -52 -33 -115 -53 -74 -23 -273 -9 -309 23 -6 4 -17 8
-25 8 -9 0 -29 7 -45 15 -36 19 -36 19 -36 -9 0 -19 7 -26 30 -31 17 -4 30
-10 30 -15 0 -5 15 -11 33 -13 17 -2 -17 -4 -78 -5 -73 -1 -105 2 -95 8 12 8
16 48 18 240 2 126 6 230 10 230 3 0 20 -14 38 -31 18 -17 37 -28 43 -25 17
11 14 20 -16 52 -51 53 -71 66 -92 59 -20 -6 -21 -13 -21 -161 l0 -154 -54 0
c-73 0 -156 -36 -156 -68 0 -6 -5 -12 -10 -14 -6 -2 -13 -33 -17 -71 l-6 -67
-263 0 -264 0 0 30 c0 23 4 30 20 30 11 0 20 3 20 8 0 4 17 16 38 27 20 11 39
22 42 25 6 7 75 33 135 51 22 6 89 15 149 18 119 7 153 24 71 36 -51 8 -215
-3 -230 -15 -5 -4 -25 -11 -43 -15 -38 -8 -123 -50 -170 -83 l-32 -23 0 125
c0 69 3 125 8 124 10 -3 56 13 62 21 3 4 16 15 30 24 13 9 19 17 12 17 -6 0
-12 7 -12 15 0 12 -5 11 -30 -3 -16 -9 -30 -20 -30 -24 0 -5 -6 -8 -14 -8 -8
0 -17 -6 -19 -12 -3 -7 -6 44 -6 113 -1 94 2 126 12 126 6 0 38 16 69 37 32
20 71 39 88 42 16 4 30 10 30 15 0 5 7 9 15 9 7 0 37 5 65 11 39 8 50 15 50
30 0 14 -7 19 -29 19 -17 0 -33 -4 -36 -10 -3 -5 -18 -10 -33 -10 -15 0 -40
-7 -56 -15 -15 -8 -35 -15 -42 -15 -8 0 -14 -4 -14 -10 0 -5 -5 -10 -11 -10
-7 0 -34 -13 -60 -30 l-49 -30 0 160 0 160 200 0 201 0 -3 -147z m1202 -703
l0 -110 -137 1 c-76 1 -129 4 -118 6 41 11 132 77 188 136 31 34 57 65 57 69
0 4 2 8 5 8 3 0 5 -49 5 -110z"/>
<path d="M550 841 c0 -15 12 -22 53 -31 75 -17 149 -45 252 -96 49 -24 98 -44
107 -44 10 0 18 -4 18 -9 0 -5 20 -12 45 -15 24 -4 47 -11 50 -17 4 -5 24 -9
46 -9 33 0 40 3 37 17 -2 13 -22 22 -70 33 -37 8 -70 18 -74 23 -4 4 -13 7
-21 7 -11 0 -178 74 -225 100 -10 6 -25 10 -33 10 -8 0 -15 4 -15 9 0 5 -22
12 -50 16 -27 4 -52 11 -56 16 -3 5 -18 9 -35 9 -22 0 -29 -5 -29 -19z"/>
<path d="M542 564 c2 -14 13 -20 43 -22 22 -2 44 -8 50 -13 5 -5 18 -9 30 -9
11 0 33 -7 49 -15 36 -19 36 -19 36 9 0 19 -7 26 -32 31 -18 4 -38 11 -44 16
-6 5 -39 12 -74 16 -57 6 -62 5 -58 -13z"/>
</g>
</svg>
