<?xml version="1.0" standalone="no"?>
<!DOCTYPE svg PUBLIC "-//W3C//DTD SVG 20010904//EN"
 "http://www.w3.org/TR/2001/REC-SVG-20010904/DTD/svg10.dtd">
<svg version="1.0" xmlns="http://www.w3.org/2000/svg"
 width="630.000000pt" height="630.000000pt" viewBox="0 0 630.000000 630.000000"
 preserveAspectRatio="xMidYMid meet">

<g transform="translate(0.000000,630.000000) scale(0.100000,-0.100000)"
fill="#6F65A9" stroke="none">
<path d="M2870 6131 c-25 -4 -97 -16 -160 -25 -343 -52 -698 -190 -1027 -401
-116 -73 -304 -227 -416 -338 l-98 -98 3 -47 c3 -42 7 -49 39 -66 50 -27 75
-15 187 93 150 146 246 221 472 367 92 59 269 140 490 224 57 22 269 74 381
94 271 49 566 46 874 -9 133 -23 387 -100 505 -152 158 -69 441 -228 470 -262
3 -4 18 -15 35 -26 56 -35 230 -185 306 -262 220 -226 374 -452 512 -753 116
-252 206 -640 207 -889 0 -97 -8 -107 -29 -39 -16 48 -105 130 -158 146 -23 7
-102 12 -186 12 l-146 0 -6 38 c-75 455 -246 798 -565 1131 -32 34 -202 178
-267 227 -35 26 -202 124 -263 154 -189 92 -404 157 -630 190 -71 11 -428 11
-500 0 -286 -40 -519 -121 -770 -268 -109 -64 -116 -68 -253 -182 -99 -82
-129 -110 -212 -201 -74 -81 -197 -249 -236 -320 -137 -254 -210 -464 -254
-731 l-6 -38 -146 0 c-84 0 -163 -5 -186 -12 -53 -16 -142 -98 -158 -146 -21
-68 -29 -58 -29 39 1 238 89 629 197 869 28 63 94 194 123 245 16 28 36 62 45
77 8 15 26 44 40 64 44 66 26 133 -41 150 -38 10 -88 -18 -115 -65 -86 -148
-151 -269 -188 -351 -23 -52 -48 -108 -56 -125 -13 -28 -67 -192 -99 -300 -39
-131 -77 -409 -84 -609 l-7 -201 -55 -8 c-113 -16 -254 -105 -319 -202 -17
-25 -43 -78 -58 -117 l-27 -73 -4 -799 c-3 -785 -2 -800 18 -880 26 -98 64
-167 129 -233 101 -102 180 -134 361 -142 l135 -6 6 -75 c10 -137 79 -238 186
-274 67 -23 515 -23 591 -1 59 18 136 87 167 150 20 39 20 71 23 1394 1 879
-1 1373 -8 1409 -18 99 -104 190 -206 216 l-49 13 3 44 c5 74 87 364 120 424
6 11 30 58 52 105 23 47 48 92 56 101 8 8 14 19 14 23 0 7 40 66 109 161 52
72 281 302 337 338 21 15 57 40 79 56 37 27 250 151 260 151 2 0 28 11 57 24
106 48 214 80 438 128 34 8 141 12 275 12 209 -1 227 -2 356 -32 75 -17 177
-45 225 -62 78 -27 271 -117 329 -152 273 -167 458 -349 640 -631 49 -74 122
-228 157 -327 29 -83 78 -277 80 -323 l3 -40 -49 -13 c-102 -26 -188 -117
-206 -216 -7 -36 -9 -530 -8 -1409 3 -1323 3 -1355 23 -1394 31 -63 108 -132
167 -150 76 -22 524 -22 591 1 107 36 176 137 186 274 l6 75 135 6 c74 4 151
12 170 19 106 39 212 126 265 216 14 24 35 74 48 111 l22 68 0 815 0 815 -22
63 c-65 184 -198 304 -372 336 l-66 12 -7 200 c-7 210 -46 481 -88 620 -11 35
-29 94 -41 132 -43 142 -122 323 -208 477 -30 55 -59 105 -63 110 -5 6 -27 39
-51 75 -133 207 -352 444 -550 599 -56 44 -109 86 -118 94 -9 8 -65 45 -125
83 -180 113 -344 191 -599 285 -84 30 -239 68 -398 96 -134 23 -183 26 -412
29 -143 1 -280 -1 -305 -5z m-1485 -2616 c18 -9 37 -27 44 -41 8 -18 11 -386
11 -1373 0 -1343 0 -1348 -20 -1374 -31 -40 -77 -47 -293 -47 -210 0 -243 6
-282 50 -20 22 -20 36 -20 1370 0 1480 -4 1388 60 1416 47 21 456 19 500 -1z
m4023 4 c64 -22 66 -33 72 -349 3 -157 8 -290 12 -296 4 -6 21 -17 38 -24 24
-10 36 -10 60 0 50 21 60 53 60 191 l0 121 123 -4 c102 -4 129 -8 165 -27 74
-38 128 -95 156 -167 l26 -64 0 -794 0 -793 -22 -54 c-62 -152 -179 -217 -373
-207 l-70 3 -5 738 -5 739 -29 25 c-24 20 -36 24 -65 19 -71 -11 -65 60 -71
-930 -5 -876 -5 -894 -25 -916 -39 -44 -72 -50 -282 -50 -216 0 -262 7 -293
47 -20 26 -20 31 -20 1374 0 983 3 1355 11 1373 23 49 55 56 290 56 129 0 228
-4 247 -11z m-4760 -1411 l-3 -1053 -75 -3 c-82 -4 -178 11 -223 34 -45 24
-111 95 -137 149 l-25 50 0 820 0 820 23 50 c29 60 72 108 130 142 59 35 89
41 210 42 l102 1 -2 -1052z"/>
<path d="M2734 4052 c-33 -21 -34 -50 -34 -665 l0 -614 23 -21 c36 -34 89 -30
121 9 l26 31 0 602 c0 549 -1 604 -17 626 -23 35 -33 40 -73 40 -19 0 -40 -4
-46 -8z"/>
<path d="M3825 4034 l-25 -27 0 -608 0 -607 26 -31 c35 -42 92 -44 123 -5 21
26 21 35 21 636 0 695 3 667 -83 668 -28 0 -44 -7 -62 -26z"/>
<path d="M3095 3936 c-13 -13 -26 -39 -30 -57 -3 -19 -5 -249 -3 -511 3 -467
3 -477 24 -505 17 -23 29 -28 64 -28 35 0 47 5 64 28 21 28 21 38 24 505 2
262 0 492 -3 511 -8 45 -46 81 -85 81 -19 0 -40 -9 -55 -24z"/>
<path d="M2350 3828 c-19 -21 -20 -33 -20 -433 l0 -412 25 -23 c38 -35 91 -33
121 6 l24 29 0 398 c0 387 -1 400 -21 428 -17 24 -27 29 -64 29 -33 0 -50 -6
-65 -22z"/>
<path d="M4201 3704 l-31 -26 0 -282 c0 -257 2 -284 18 -299 41 -37 92 -39
132 -5 19 17 20 29 20 302 l0 284 -31 26 c-17 14 -41 26 -54 26 -13 0 -37 -12
-54 -26z"/>
<path d="M2004 3585 c-17 -7 -34 -20 -38 -30 -8 -21 -8 -298 0 -320 10 -25 62
-48 93 -40 14 4 36 16 49 27 21 20 22 29 22 173 0 144 -1 152 -22 172 -31 28
-67 34 -104 18z"/>
<path d="M3493 3593 c-13 -3 -32 -16 -43 -30 -18 -23 -20 -40 -20 -167 0 -134
1 -143 24 -171 31 -39 98 -43 127 -6 17 20 19 41 19 176 0 131 -2 156 -17 173
-19 21 -55 31 -90 25z"/>
<path d="M2937 2415 c-211 -36 -420 -148 -588 -314 -249 -249 -365 -570 -331
-918 26 -267 132 -490 327 -689 78 -79 126 -116 258 -198 55 -34 173 -78 287
-107 101 -25 133 -29 260 -29 121 0 161 4 239 25 110 28 135 47 134 102 -1 27
-8 44 -28 60 -31 27 -54 28 -132 8 -83 -22 -254 -30 -343 -16 -91 15 -199 46
-261 78 -26 13 -50 23 -54 23 -18 0 -150 95 -209 151 -122 114 -212 253 -261
404 -38 117 -48 195 -43 349 5 129 8 150 41 247 20 58 46 124 58 145 83 147
181 260 299 345 100 73 254 139 370 160 96 17 284 17 380 0 191 -34 397 -154
532 -310 101 -117 151 -205 199 -352 27 -81 32 -114 36 -231 6 -153 -5 -245
-42 -355 -51 -152 -136 -283 -260 -403 -54 -51 -68 -71 -72 -101 -10 -71 64
-111 136 -74 55 28 184 178 266 310 73 115 131 297 147 456 34 349 -82 673
-331 919 -173 172 -377 280 -596 315 -109 18 -311 18 -418 0z"/>
<path d="M2777 1845 c-69 -47 -67 -32 -67 -547 0 -528 -2 -514 80 -556 67 -35
120 -26 234 41 101 60 177 104 219 127 15 8 66 38 115 66 48 28 130 75 182
105 149 86 169 101 190 145 42 86 10 174 -82 223 -18 10 -77 43 -131 74 -254
148 -300 174 -406 234 -63 36 -131 76 -152 89 -54 34 -131 33 -182 -1z m196
-209 c39 -24 106 -62 147 -86 100 -57 125 -71 193 -111 32 -19 70 -41 85 -49
80 -45 143 -83 147 -90 4 -7 -31 -31 -117 -80 -15 -8 -69 -39 -120 -69 -51
-30 -106 -61 -123 -70 -16 -9 -41 -24 -55 -32 -60 -38 -218 -129 -233 -135
-16 -6 -17 22 -17 380 0 255 3 386 10 386 6 0 43 -20 83 -44z"/>
</g>
</svg>
